<?xml version="1.0" encoding="UTF-8"?>
<svg xmlns="http://www.w3.org/2000/svg" viewBox="0 0 100 100" role="img" aria-label="ios2ha-camera-hass">
  <defs><linearGradient id="fill" x1="0.15" y1="0.85" x2="0.85" y2="0.15"><stop offset="0" stop-color="rgb(150, 236, 255)"/><stop offset="0.5" stop-color="rgb(24, 188, 242)"/><stop offset="1" stop-color="rgb(78, 104, 236)"/></linearGradient><linearGradient id="sheen" x1="0" y1="0" x2="0.6" y2="0.7"><stop offset="0" stop-color="#fff" stop-opacity="0.4"/><stop offset="1" stop-color="#fff" stop-opacity="0"/></linearGradient><linearGradient id="shade" x1="0" y1="0" x2="0" y2="1"><stop offset="0.5" stop-color="rgb(47, 62, 142)" stop-opacity="0"/><stop offset="1" stop-color="rgb(47, 62, 142)" stop-opacity="0.45"/></linearGradient><clipPath id="house"><path d="M240 224.762a15 15 0 0 1-15 15H15a15 15 0 0 1-15-15v-90c0-8.25 4.77-19.769 10.61-25.609l98.78-98.7805c5.83-5.83 15.38-5.83 21.21 0l98.79 98.7895c5.83 5.83 10.61 17.36 10.61 25.61v90-.01Z" transform="translate(9 9) scale(0.3417)"/></clipPath></defs>
  <g clip-path="url(#house)"><rect width="100" height="100" fill="url(#fill)"/>
    <rect width="100" height="100" fill="url(#shade)"/>
    <circle cx="18" cy="8" r="62" fill="url(#sheen)"/></g>
  <g transform="translate(0.00 7.00)"><rect x="37" y="30" width="26" height="44" rx="6" fill="#fff"/>
    <rect x="45" y="33.5" width="10" height="3" rx="1.5" fill="rgb(40, 44, 56)"/>
    <circle cx="50" cy="53" r="7.5" fill="rgb(40, 44, 56)"/><circle cx="50" cy="53" r="3" fill="#fff" opacity="0.85"/></g>
</svg>
